<?xml version="1.0" standalone="no"?>
<!DOCTYPE svg PUBLIC "-//W3C//DTD SVG 20010904//EN"
 "http://www.w3.org/TR/2001/REC-SVG-20010904/DTD/svg10.dtd">
<svg version="1.0" xmlns="http://www.w3.org/2000/svg"
 width="1098.000000pt" height="1280.000000pt" viewBox="0 0 1098.000000 1280.000000"
 preserveAspectRatio="xMidYMid meet">
<metadata>
Created by potrace 1.15, written by Peter Selinger 2001-2017
</metadata>
<g transform="translate(0.000000,1280.000000) scale(0.100000,-0.100000)"
fill="#fff" stroke="none">
<path d="M5743 12790 c-52 -21 -57 -86 -9 -141 18 -22 43 -68 55 -102 49 -143
67 -144 62 -2 -2 76 1 110 13 139 19 46 14 68 -21 96 -27 21 -63 25 -100 10z"/>
<path d="M6012 12774 c-35 -24 -45 -60 -32 -115 10 -41 8 -59 -16 -148 -39
-147 -21 -149 54 -6 20 39 58 90 84 115 40 38 48 52 48 82 0 67 -83 111 -138
72z"/>
<path d="M5503 12703 c-32 -6 -63 -50 -63 -87 0 -38 29 -73 68 -82 45 -11 84
-34 142 -83 140 -119 150 -109 40 40 -39 52 -62 95 -70 129 -15 64 -57 94
-117 83z"/>
<path d="M6217 12639 c-16 -12 -33 -41 -42 -71 -9 -31 -35 -75 -70 -118 -87
-106 -74 -116 41 -32 41 30 92 57 126 67 91 26 116 88 59 146 -35 35 -77 38
-114 8z"/>
<path d="M5353 12495 c-61 -26 -71 -89 -23 -137 29 -28 35 -30 83 -25 37 4 84
-3 159 -21 155 -37 160 -20 17 54 -68 35 -96 56 -114 84 -14 22 -37 42 -56 49
-18 6 -32 11 -33 11 -1 -1 -15 -7 -33 -15z"/>
<path d="M6347 12428 c-27 -29 -66 -54 -120 -78 -107 -47 -114 -66 -21 -55 38
5 113 9 167 10 96 0 99 1 124 29 20 24 24 36 19 65 -7 47 -38 71 -89 71 -34 0
-46 -6 -80 -42z"/>
<path d="M6076 12192 c-3 -5 -4 -40 -3 -78 2 -69 1 -72 -40 -125 -39 -51 -55
-93 -68 -179 -14 -97 -98 -151 -247 -158 -49 -3 -88 -1 -88 2 0 4 7 21 16 38
9 18 27 71 40 120 46 172 84 214 252 279 74 29 -56 110 -151 95 -63 -10 -117
-44 -193 -120 -48 -48 -84 -96 -110 -146 -38 -73 -39 -77 -39 -180 l0 -106
-66 -104 c-99 -156 -116 -198 -89 -215 5 -3 57 27 115 67 166 115 160 113 245
87 134 -41 254 -4 364 111 32 33 62 60 67 60 14 0 24 -50 23 -117 -1 -48 -8
-76 -32 -126 -41 -82 -102 -143 -232 -230 -316 -212 -483 -379 -551 -554 -18
-46 -22 -79 -23 -158 0 -120 23 -189 103 -311 28 -42 51 -87 51 -99 0 -13 -12
-49 -27 -81 -25 -52 -28 -71 -28 -159 0 -86 3 -106 24 -145 37 -70 61 -98 129
-151 62 -49 74 -68 108 -162 41 -115 142 -181 276 -179 42 0 82 3 88 7 25 15
6 42 -52 75 -188 107 -299 290 -299 496 -1 173 51 311 158 425 111 117 249
168 423 155 169 -12 318 -63 459 -154 35 -23 77 -44 95 -46 17 -3 126 -9 241
-15 340 -18 527 -69 740 -206 56 -35 269 -213 388 -324 77 -71 97 -83 97 -58
0 41 -186 276 -292 368 -165 145 -244 190 -560 318 -492 200 -592 253 -718
380 -149 151 -340 360 -340 374 0 7 20 45 45 84 153 247 200 438 157 646 -46
219 -179 409 -333 475 -55 24 -116 35 -123 24z"/>
<path d="M5775 11868 c-27 -16 -35 -28 -35 -60 0 -35 32 -68 65 -68 52 0 84
71 53 113 -17 22 -59 29 -83 15z"/>
<path d="M6758 10713 c-48 -4 -74 -23 -65 -47 3 -7 43 -34 89 -59 147 -80 333
-150 514 -192 209 -50 345 -115 510 -247 157 -125 176 -114 58 34 -198 246
-452 417 -729 488 -80 21 -276 33 -377 23z"/>
<path d="M6464 10145 c-17 -70 27 -140 119 -184 79 -38 168 -56 382 -75 185
-17 225 -26 300 -63 70 -36 116 -75 185 -160 61 -74 80 -83 80 -37 0 75 -120
220 -227 277 -91 47 -155 62 -432 96 -270 34 -308 47 -351 121 -31 53 -47 60
-56 25z"/>
<path d="M8268 9689 c-27 -15 -22 -36 26 -97 25 -32 55 -82 69 -113 29 -65 57
-88 148 -118 65 -21 287 -144 356 -197 31 -24 63 -27 63 -6 0 5 -56 69 -123
143 -199 217 -367 356 -465 385 -53 16 -52 16 -74 3z"/>
<path d="M7260 9583 c-8 -3 -39 -28 -68 -55 l-53 -50 -67 4 -66 3 -12 -51 c-6
-29 -18 -62 -27 -74 -44 -63 -149 -101 -223 -81 -22 6 -61 25 -87 42 -25 17
-51 28 -57 24 -6 -4 -21 -28 -35 -55 -53 -104 -170 -147 -274 -100 -56 26 -61
25 -61 -7 0 -71 116 -147 225 -147 77 1 135 30 177 89 18 25 37 45 42 45 6 0
33 -7 60 -15 62 -19 109 -19 173 0 65 19 95 44 139 112 l35 54 52 -6 c46 -6
56 -3 87 19 106 77 107 78 203 91 107 15 137 27 137 55 0 14 -11 22 -40 30
-22 6 -80 26 -130 45 -90 35 -103 38 -130 28z"/>
<path d="M7691 9444 c-80 -21 -166 -71 -227 -132 -57 -55 -66 -85 -28 -90 11
-2 61 17 110 42 212 107 371 110 559 11 77 -41 95 -45 95 -23 0 19 -96 110
-150 143 -102 62 -240 81 -359 49z"/>
<path d="M7769 9255 c-119 -68 -210 -94 -329 -95 -36 -1 -83 -4 -105 -8 -34
-6 -40 -11 -40 -32 0 -21 7 -27 45 -37 58 -15 195 -16 261 -2 28 6 83 24 122
40 38 16 76 29 84 29 8 0 36 -19 63 -41 37 -31 59 -42 86 -43 63 -2 64 21 3
99 -101 129 -112 134 -190 90z"/>
<path d="M8510 9263 c0 -9 39 -57 88 -107 110 -115 213 -231 375 -424 234
-278 391 -382 584 -382 75 0 113 13 113 38 0 16 -12 21 -79 30 -128 18 -229
71 -328 173 -29 30 -101 124 -159 209 -221 323 -291 387 -500 455 -91 30 -94
30 -94 8z"/>
<path d="M8090 9136 c0 -3 31 -65 69 -139 76 -147 101 -234 101 -344 0 -175
-95 -351 -207 -382 -21 -6 -63 -11 -93 -11 l-55 0 31 -31 c108 -108 323 -10
417 189 28 60 32 79 35 176 4 97 1 117 -23 192 -15 47 -47 113 -74 153 -64 97
-158 201 -182 201 -10 0 -19 -2 -19 -4z"/>
<path d="M7035 9099 c-11 -16 30 -53 91 -83 119 -59 339 -93 529 -83 128 7
181 20 195 48 30 56 -35 87 -145 69 -236 -38 -376 -31 -549 25 -125 40 -113
38 -121 24z"/>
<path d="M5921 9086 c-19 -23 1 -49 85 -116 86 -68 206 -130 310 -158 132 -37
184 -77 282 -222 55 -81 122 -155 190 -210 40 -32 46 -42 69 -130 23 -90 34
-124 84 -257 15 -38 22 -83 23 -130 2 -117 -25 -128 -186 -72 -140 48 -265 52
-288 10 -14 -28 8 -47 72 -60 55 -12 78 -26 78 -46 0 -17 -19 -24 -101 -35
-82 -12 -117 -26 -125 -53 -8 -26 19 -47 62 -47 18 0 78 16 133 36 140 50 171
36 67 -30 -94 -60 -122 -111 -76 -136 32 -17 78 3 181 77 132 95 165 107 279
108 85 0 101 -3 149 -28 95 -51 114 -5 26 63 -30 23 -68 63 -85 88 -26 40 -30
54 -30 118 0 62 -5 82 -34 141 -40 80 -80 235 -72 277 7 36 43 76 67 76 9 0
41 -11 71 -25 60 -28 76 -30 113 -13 48 21 72 101 40 128 -9 8 -64 16 -133 20
-137 9 -193 27 -286 94 -75 54 -203 189 -278 295 -78 109 -87 114 -221 122
-120 7 -144 14 -296 88 -89 43 -149 52 -170 27z"/>
<path d="M8514 9089 c-3 -6 12 -37 34 -68 175 -241 329 -491 373 -606 17 -44
36 -86 41 -92 26 -32 107 0 150 58 16 21 17 30 8 54 -33 86 -545 665 -588 665
-6 0 -14 -5 -18 -11z"/>
<path d="M8279 9057 c5 -13 31 -61 59 -107 65 -111 126 -233 145 -290 64 -192
23 -486 -80 -581 -51 -48 -92 -63 -178 -66 -44 -1 -84 -2 -88 -2 -22 -2 3 -49
41 -78 59 -45 140 -67 215 -59 117 12 198 70 238 173 20 50 23 76 23 183 -1
133 -11 202 -50 338 -48 165 -146 339 -257 455 -59 61 -83 73 -68 34z"/>
<path d="M6775 9020 c-21 -33 159 -167 296 -220 164 -63 347 -89 619 -89 246
0 360 32 360 101 0 41 -15 65 -53 84 -48 25 -217 21 -417 -9 -238 -36 -278
-39 -375 -27 -145 18 -257 61 -397 154 -18 12 -28 14 -33 6z"/>
<path d="M6630 8964 c0 -32 65 -137 118 -190 60 -59 183 -145 277 -192 264
-131 703 -168 784 -66 26 34 27 84 1 116 -33 43 -92 52 -263 42 -84 -5 -219
-9 -302 -8 -125 0 -162 4 -220 22 -126 39 -230 115 -321 233 -44 58 -74 75
-74 43z"/>
<path d="M8490 8955 c0 -10 31 -67 78 -145 95 -157 168 -348 198 -523 20 -114
14 -415 -11 -516 -33 -137 -126 -253 -251 -315 -109 -54 -123 -85 -51 -116 68
-30 110 -34 170 -16 240 70 369 534 265 956 -53 216 -171 439 -331 624 -42 49
-67 68 -67 51z"/>
<path d="M9250 8317 c0 -7 12 -29 26 -48 76 -101 93 -187 52 -260 -23 -42 -85
-79 -129 -79 -14 0 -49 12 -78 26 -58 29 -103 87 -123 159 -13 45 -34 73 -45
61 -14 -14 -5 -117 16 -185 11 -36 41 -100 66 -141 44 -73 45 -77 43 -151 -2
-58 2 -82 15 -102 26 -40 61 -59 110 -59 81 0 141 50 172 141 12 38 27 58 58
81 88 65 120 149 97 263 -15 80 -32 118 -75 178 -59 80 -205 163 -205 116z"/>
<path d="M9832 8308 c-7 -7 -12 -23 -12 -35 0 -103 -119 -129 -260 -58 -53 27
-80 32 -80 14 0 -20 77 -124 124 -167 58 -53 101 -72 163 -72 99 0 163 70 163
177 0 60 -28 126 -59 143 -24 13 -24 13 -39 -2z"/>
<path d="M9093 8290 c-32 -13 -63 -68 -63 -113 0 -54 26 -104 72 -137 75 -55
142 -48 173 17 36 76 -6 182 -87 222 -48 23 -61 24 -95 11z"/>
<path d="M7202 8227 c-9 -10 -4 -29 18 -75 32 -68 27 -75 -34 -46 -33 16 -66
14 -66 -4 0 -5 11 -20 24 -33 40 -41 47 -65 40 -128 l-6 -58 43 -33 c24 -18
65 -55 92 -83 45 -47 48 -49 70 -34 19 13 22 23 19 69 -3 70 2 87 38 133 44
55 40 80 -17 107 -44 22 -48 26 -64 88 -21 79 -52 110 -108 110 -21 0 -43 -6
-49 -13z"/>
<path d="M9620 7945 c-38 -20 -53 -56 -48 -113 6 -61 36 -106 91 -134 85 -43
147 -23 167 54 34 124 -104 251 -210 193z"/>
<path d="M9866 7922 c-2 -4 12 -33 31 -65 51 -81 55 -136 14 -199 -58 -91
-145 -103 -246 -33 -53 36 -85 41 -85 12 0 -30 33 -105 65 -149 25 -34 52 -55
101 -79 177 -87 338 -19 375 159 15 74 6 141 -28 203 -30 56 -72 94 -150 133
-55 27 -69 31 -77 18z"/>
<path d="M9484 7515 c4 -93 11 -190 14 -215 l7 -45 45 1 c72 1 120 13 120 30
0 9 -14 36 -31 60 -40 58 -81 150 -109 241 -12 40 -29 78 -37 85 -15 12 -16
-3 -9 -157z"/>
<path d="M8997 7617 c-24 -20 -47 -107 -47 -181 1 -261 168 -420 348 -330 120
60 184 221 157 396 -11 76 -30 105 -49 74 -34 -57 -76 -103 -106 -118 -43 -22
-140 -24 -178 -4 -32 16 -67 75 -77 128 -8 40 -25 53 -48 35z"/>
<path d="M10200 7577 c-31 -15 -37 -51 -13 -71 10 -9 54 -39 98 -68 105 -69
158 -138 248 -317 40 -80 77 -143 82 -140 6 2 9 45 9 104 -4 240 -86 421 -219
484 -52 24 -164 29 -205 8z"/>
<path d="M10157 7393 c-15 -15 -4 -34 61 -106 76 -84 141 -203 191 -354 40
-121 59 -228 71 -403 12 -172 40 -289 110 -464 27 -69 50 -132 50 -138 0 -7
-14 3 -32 22 -27 30 -33 32 -36 17 -2 -10 6 -55 19 -100 56 -209 9 -339 -147
-408 -146 -65 -329 -7 -393 124 -43 89 -36 244 15 356 21 47 23 57 10 69 -12
12 -19 12 -50 -3 -130 -62 -216 -215 -216 -385 0 -89 34 -223 78 -305 62 -116
190 -204 327 -225 120 -19 249 11 354 81 78 52 127 107 165 188 29 61 31 73
30 171 0 92 -4 116 -32 194 -18 49 -30 91 -28 93 2 2 17 -18 34 -46 39 -63
114 -141 135 -141 23 0 21 16 -7 53 -82 109 -118 268 -136 602 -6 99 -15 207
-20 241 -26 165 -109 370 -211 521 -65 97 -72 107 -172 221 -93 107 -148 148
-170 125z"/>
<path d="M10180 7278 c0 -12 52 -118 61 -123 17 -11 21 23 6 52 -14 26 -67 83
-67 71z"/>
<path d="M10007 7158 c4 -35 8 -139 7 -233 -1 -227 -32 -421 -110 -693 -20
-68 -33 -130 -30 -138 28 -72 198 123 252 289 36 110 44 308 20 442 -29 157
-112 395 -138 395 -5 0 -6 -26 -1 -62z"/>
<path d="M10130 7212 c0 -8 13 -57 30 -110 62 -203 80 -363 80 -697 0 -130 4
-236 9 -239 5 -4 43 -9 85 -12 94 -8 106 -1 106 68 0 201 -106 614 -218 849
-48 102 -91 168 -92 141z"/>
<path d="M9641 7174 c-20 -14 -28 -15 -63 -3 -38 12 -42 12 -59 -10 -42 -52
-48 -155 -14 -222 34 -64 127 -89 191 -50 80 48 96 203 29 275 -28 30 -51 33
-84 10z"/>
<path d="M8892 7143 c-6 -10 -27 -84 -47 -163 -231 -923 -573 -1584 -1066
-2066 -68 -66 -155 -145 -194 -176 -258 -204 -571 -356 -865 -419 -89 -20
-136 -23 -315 -23 -249 -1 -317 11 -458 82 -73 36 -109 62 -173 126 -136 137
-202 275 -212 442 -12 220 85 414 258 516 163 96 366 86 432 -21 42 -68 22
-165 -45 -215 -23 -17 -43 -21 -105 -21 -93 0 -130 18 -182 88 -41 55 -61 58
-99 18 -75 -80 -65 -250 22 -363 147 -190 498 -111 615 140 23 49 27 70 27
152 0 88 -3 101 -34 165 -80 163 -297 305 -467 305 -60 0 -206 -44 -299 -91
-200 -100 -362 -293 -411 -489 -60 -241 70 -597 311 -849 373 -390 951 -411
1644 -61 360 182 814 546 1019 818 111 147 231 360 322 572 18 41 35 78 39 82
3 4 4 -35 3 -86 -2 -52 1 -118 7 -148 28 -131 117 -257 213 -298 44 -19 65
-22 137 -18 72 4 98 10 156 38 141 67 274 236 305 387 17 81 7 232 -20 313
-23 69 -53 111 -69 95 -5 -6 -28 -77 -51 -160 -51 -185 -78 -228 -172 -274
-206 -101 -371 -4 -369 216 0 37 8 93 17 123 26 89 27 100 15 100 -13 0 -54
-41 -78 -77 -25 -38 -33 -26 -17 25 64 205 144 564 183 822 21 142 45 399 37
407 -2 3 -9 -4 -14 -14z"/>
<path d="M8731 7008 c-82 -199 -171 -316 -280 -366 -110 -51 -179 -40 -241 38
-40 50 -66 52 -86 5 -30 -73 -11 -161 48 -210 45 -38 100 -49 172 -35 205 40
343 204 416 494 51 200 37 235 -29 74z"/>
<path d="M9836 7008 c-3 -7 -7 -38 -11 -70 -7 -66 -39 -134 -75 -160 -34 -24
-127 -43 -173 -34 -63 12 -113 66 -138 148 -12 38 -28 72 -36 75 -38 15 -85
-106 -84 -217 0 -58 6 -84 29 -135 60 -126 141 -185 257 -185 131 0 238 67
297 188 30 61 33 74 32 157 -1 74 -6 103 -30 165 -28 72 -58 101 -68 68z"/>
<path d="M9137 6988 c-3 -13 -11 -61 -17 -108 -26 -200 -94 -379 -212 -558
-47 -71 -58 -96 -49 -105 17 -17 74 16 141 83 67 67 132 187 161 297 22 81 38
336 25 387 -8 33 -42 35 -49 4z"/>
<path d="M9226 7003 c-4 -4 -4 -79 0 -168 9 -210 -10 -304 -98 -492 -21 -46
-38 -85 -38 -87 0 -11 41 -27 91 -36 97 -19 117 16 126 221 6 125 -7 317 -31
468 -15 95 -27 117 -50 94z"/>
<path d="M7836 6629 c-93 -22 -209 -109 -292 -219 -81 -107 -123 -264 -104
-383 28 -180 106 -289 234 -333 79 -27 218 -15 332 28 246 93 424 246 544 471
43 79 44 104 1 42 -40 -59 -173 -179 -237 -212 -118 -63 -275 -81 -384 -46
-69 22 -141 88 -176 161 -23 47 -28 71 -28 137 -1 69 3 88 29 138 28 56 142
177 166 177 6 0 9 10 7 23 -4 26 -31 31 -92 16z"/>
<path d="M8611 6496 c-118 -175 -210 -226 -316 -177 -22 10 -60 34 -83 55 -56
46 -100 49 -132 9 -26 -33 -24 -96 4 -138 24 -36 88 -73 148 -86 153 -33 313
85 401 297 52 125 45 138 -22 40z"/>
<path d="M9801 6418 c-11 -30 -25 -143 -22 -188 3 -52 10 -70 31 -70 28 0 43
59 44 175 1 96 0 100 -21 103 -16 2 -26 -3 -32 -20z"/>
<path d="M9421 6309 c-50 -81 -63 -171 -29 -193 42 -26 88 93 69 177 -13 53
-17 54 -40 16z"/>
<path d="M9615 6288 c-3 -7 -1 -99 4 -204 20 -400 -22 -882 -100 -1160 -16
-57 -29 -111 -29 -119 0 -21 32 -35 82 -35 24 0 63 -5 87 -11 35 -8 47 -7 58
4 24 24 35 190 36 532 0 337 -12 533 -48 740 -31 181 -73 298 -90 253z"/>
<path d="M7197 6080 c-58 -68 -91 -225 -69 -326 42 -194 161 -317 329 -339
198 -26 636 160 851 362 96 91 80 114 -29 40 -103 -70 -188 -114 -289 -148
-82 -28 -112 -33 -221 -37 -106 -4 -139 -1 -215 18 -234 59 -315 157 -299 366
7 90 6 94 -13 94 -11 0 -32 -13 -45 -30z"/>
<path d="M9011 6078 c-124 -35 -222 -191 -192 -304 34 -128 147 -187 255 -135
111 54 182 207 146 316 -17 52 -74 113 -118 125 -43 11 -46 11 -91 -2z"/>
<path d="M10253 6060 c-77 -39 -127 -137 -127 -250 0 -113 49 -198 136 -235
93 -38 196 7 251 110 16 31 21 58 21 117 0 69 -5 86 -35 145 -58 114 -156 159
-246 113z"/>
<path d="M8130 5588 c-299 -179 -581 -274 -855 -285 -166 -6 -235 4 -325 49
-79 40 -115 88 -132 176 -7 35 -17 64 -23 64 -21 2 -40 -60 -43 -139 -4 -72
-1 -88 23 -142 54 -120 209 -235 364 -271 75 -18 231 -15 318 5 99 23 290 120
403 205 174 132 400 356 384 382 -9 15 -28 8 -114 -44z"/>
<path d="M7995 5298 c-27 -19 -93 -64 -146 -101 -304 -210 -764 -370 -1064
-371 -125 0 -186 19 -254 80 -60 54 -81 55 -160 9 -165 -97 -215 -261 -111
-365 45 -45 113 -77 204 -97 135 -29 389 -2 575 62 284 96 638 361 944 707 83
93 89 128 12 76z"/>
<path d="M8549 5128 c-86 -170 -256 -377 -556 -677 -196 -196 -222 -226 -210
-239 13 -12 22 -12 68 3 281 92 522 316 663 616 57 122 108 279 104 321 -5 57
-33 48 -69 -24z"/>
<path d="M9257 5142 c-35 -65 -54 -173 -38 -227 27 -97 65 -124 130 -90 38 19
111 103 111 127 0 20 -6 23 -63 33 -45 7 -54 25 -70 133 -13 89 -31 95 -70 24z"/>
<path d="M10692 5163 c-61 -155 -84 -450 -48 -618 34 -156 132 -336 206 -379
l33 -19 -8 54 c-5 30 -10 133 -10 229 -2 191 -11 274 -56 485 -42 203 -65 275
-88 275 -11 0 -23 -11 -29 -27z"/>
<path d="M9812 5017 c-28 -35 -16 -163 19 -198 39 -39 149 -12 201 49 37 44
64 120 51 141 -15 24 -49 25 -83 1 -35 -25 -81 -24 -142 3 -28 13 -38 14 -46
4z"/>
<path d="M8736 4967 c-15 -19 -26 -38 -26 -43 0 -14 -145 -267 -193 -339 -60
-89 -212 -241 -382 -383 -82 -69 -153 -130 -157 -136 -15 -22 -7 -37 28 -58
26 -15 44 -37 60 -75 34 -75 48 -77 105 -14 104 116 234 318 376 586 88 164
233 466 233 484 0 21 -19 11 -44 -22z"/>
<path d="M9065 4934 c-20 -49 -55 -221 -55 -272 0 -23 5 -44 11 -48 13 -8 116
62 137 94 15 22 13 31 -23 143 -22 65 -43 119 -47 119 -4 0 -15 -16 -23 -36z"/>
<path d="M8891 4873 c-98 -235 -377 -697 -670 -1107 -124 -175 -118 -204 27
-136 310 145 546 485 647 934 30 134 60 350 51 371 -11 29 -24 14 -55 -62z"/>
<path d="M10355 4898 c-64 -99 -112 -256 -144 -480 -43 -297 -110 -452 -297
-692 -112 -142 -102 -171 34 -102 152 78 267 212 341 397 66 168 90 313 101
609 5 129 12 254 16 278 9 58 -8 54 -51 -10z"/>
<path d="M10174 4932 c-5 -4 -23 -36 -39 -72 -60 -129 -101 -195 -157 -256
-63 -67 -73 -94 -33 -94 38 0 126 37 165 69 73 59 119 190 105 297 -6 50 -21
70 -41 56z"/>
<path d="M10526 4871 c-15 -24 -28 -237 -22 -355 16 -297 77 -525 173 -644 58
-71 108 -87 181 -57 84 36 141 133 116 199 -4 11 -19 16 -44 16 -46 0 -140 58
-194 121 -96 112 -165 344 -182 614 -7 99 -14 129 -28 106z"/>
<path d="M9469 4702 c-231 -77 -328 -289 -229 -500 17 -37 41 -78 53 -90 99
-107 314 -70 451 78 59 64 78 113 77 201 -1 231 -162 373 -352 311z"/>
<path d="M9095 4566 c-64 -43 -143 -127 -194 -205 -118 -183 -184 -493 -141
-671 47 -199 193 -301 430 -302 256 -1 453 112 589 337 70 115 131 321 147
493 6 58 4 76 -10 97 -22 33 -41 21 -51 -33 -9 -49 -41 -143 -75 -219 -71
-157 -206 -232 -401 -221 -110 6 -192 41 -254 110 -57 64 -75 119 -75 232 1
120 11 161 71 284 68 137 58 162 -36 98z"/>
<path d="M10446 4283 c-17 -43 -28 -264 -23 -453 10 -409 70 -560 220 -560 66
0 126 36 156 94 21 40 25 65 29 169 4 106 2 124 -12 136 -15 12 -20 11 -44
-11 -83 -77 -170 -60 -223 44 -34 66 -58 203 -70 398 -12 180 -19 221 -33 183z"/>
<path d="M5490 4195 c-9 -11 -11 -35 -6 -83 35 -344 265 -575 621 -623 115
-15 321 -6 436 20 188 42 449 175 449 228 0 18 -10 17 -145 -19 -114 -30 -129
-32 -310 -32 -178 -1 -196 1 -290 27 -238 66 -414 173 -607 369 -69 70 -129
128 -131 128 -3 0 -10 -7 -17 -15z"/>
<path d="M7470 3933 c-134 -23 -287 -91 -371 -163 -136 -116 -204 -333 -155
-493 31 -104 128 -212 238 -268 207 -104 413 -68 623 108 72 61 215 227 215
250 0 28 -31 24 -89 -12 -127 -78 -298 -118 -412 -96 -160 32 -249 126 -249
264 0 137 56 236 189 332 46 33 83 65 83 70 -1 11 -34 15 -72 8z"/>
<path d="M7733 3915 c-174 -48 -281 -172 -291 -335 -3 -66 -1 -79 20 -109 12
-19 45 -46 73 -60 42 -22 63 -26 135 -26 74 0 93 4 150 31 79 38 140 97 177
172 53 108 29 259 -50 316 -36 26 -141 31 -214 11z"/>
<path d="M4010 3789 c-127 -36 -306 -122 -376 -181 -124 -103 -185 -213 -192
-343 -6 -106 11 -179 61 -277 92 -179 305 -350 544 -437 96 -35 275 -76 405
-92 150 -18 502 -7 658 21 279 49 508 125 755 249 118 60 150 80 150 96 0 25
-4 25 -192 -13 -318 -65 -429 -76 -758 -77 -317 0 -377 6 -550 57 -86 25 -217
85 -281 129 -118 81 -243 242 -284 365 -31 92 -25 195 16 279 29 58 117 157
183 206 39 28 35 49 -7 48 -15 0 -74 -14 -132 -30z"/>
<path d="M5368 3783 c-33 -54 -31 -138 5 -217 137 -299 615 -442 1082 -325 91
23 218 74 234 93 21 25 -9 35 -74 24 -92 -15 -370 -3 -515 22 -230 40 -461
124 -552 200 -40 33 -98 138 -98 177 0 69 -46 83 -82 26z"/>
<path d="M10306 3812 c-2 -4 -14 -44 -26 -87 -16 -56 -24 -121 -27 -216 -6
-160 5 -231 73 -441 49 -153 54 -210 28 -299 -39 -134 -138 -261 -355 -453
-212 -187 -249 -242 -249 -371 0 -92 24 -159 74 -210 52 -51 100 -69 175 -63
110 8 171 62 171 151 0 25 -4 48 -10 52 -5 3 -26 -1 -46 -10 -107 -44 -182 19
-143 122 29 76 132 179 351 351 170 133 230 238 231 407 1 117 -21 200 -117
436 -92 228 -106 293 -106 489 0 134 -6 171 -24 142z"/>
<path d="M8600 3748 c-73 -99 -237 -257 -419 -403 -94 -75 -171 -141 -171
-146 0 -57 281 47 406 150 132 109 254 318 254 433 0 43 -21 33 -70 -34z"/>
<path d="M4685 3780 c-170 -36 -318 -137 -375 -255 -33 -67 -38 -164 -15 -240
87 -276 500 -435 1130 -435 232 0 416 20 590 65 232 60 456 166 393 187 -7 3
-72 -8 -145 -23 -190 -39 -342 -53 -518 -46 -250 10 -438 56 -629 154 -122 63
-235 172 -261 252 -30 93 -10 179 68 288 25 35 28 45 17 58 -18 21 -141 19
-255 -5z"/>
<path d="M8639 3407 c-137 -132 -421 -319 -777 -512 -78 -42 -145 -82 -148
-87 -4 -6 0 -16 8 -24 11 -11 28 -12 93 -4 314 40 615 229 867 545 64 80 92
131 84 151 -11 29 -43 11 -127 -69z"/>
<path d="M8784 3318 c-61 -87 -185 -226 -300 -338 -293 -285 -586 -478 -866
-570 -54 -17 -98 -36 -98 -41 0 -19 53 -29 150 -29 181 0 340 35 480 105 191
96 419 336 564 592 66 117 123 247 128 288 5 46 -23 43 -58 -7z"/>
<path d="M8934 3263 c-34 -82 -140 -284 -208 -397 -180 -296 -378 -528 -546
-638 -116 -76 -314 -188 -416 -235 -100 -45 -106 -62 -37 -93 82 -36 93 -53
93 -136 0 -119 4 -117 255 138 334 339 488 526 626 760 77 129 173 325 237
483 48 120 54 148 29 153 -12 3 -22 -7 -33 -35z"/>
<path d="M9730 3244 c-192 -57 -371 -194 -445 -342 -82 -162 -38 -373 105
-505 193 -179 464 -126 660 128 39 50 42 58 28 71 -14 14 -22 12 -77 -15 -112
-57 -227 -75 -313 -49 -44 13 -122 77 -142 117 -43 83 -38 224 11 330 36 78
139 177 228 220 89 43 100 51 83 62 -20 13 -46 10 -138 -17z"/>
<path d="M9997 3226 c-98 -36 -191 -126 -245 -235 -33 -67 -37 -83 -40 -170
-3 -85 -1 -101 20 -141 31 -60 76 -85 153 -85 110 1 215 81 284 218 48 96 66
184 52 254 -14 70 -39 121 -73 146 -33 25 -103 31 -151 13z"/>
<path d="M3085 3158 c-65 -51 -95 -190 -60 -275 25 -59 90 -139 163 -199 144
-119 314 -174 551 -177 84 -1 125 2 128 9 5 14 -22 25 -162 64 -135 39 -205
74 -275 137 -97 87 -190 260 -190 353 0 40 -20 89 -40 100 -32 17 -86 11 -115
-12z"/>
<path d="M9295 3121 c-232 -100 -434 -256 -542 -419 -42 -64 -78 -151 -66
-163 5 -5 91 33 191 84 211 107 258 145 323 265 64 116 115 188 159 223 37 30
50 49 33 49 -5 0 -48 -18 -98 -39z"/>
<path d="M6675 3104 c-237 -88 -478 -215 -789 -417 -411 -267 -790 -413 -1185
-457 -51 -6 -102 -15 -112 -21 -28 -14 -24 -54 9 -79 39 -31 51 -58 52 -116 0
-70 12 -78 103 -71 92 7 205 43 387 123 328 144 628 334 980 618 171 139 369
266 584 377 194 99 180 121 -29 43z"/>
<path d="M1932 2965 c-110 -29 -227 -85 -335 -162 -87 -63 -168 -144 -149
-151 6 -2 67 24 134 57 147 72 229 94 358 93 150 -1 299 -48 635 -204 242
-113 265 -118 432 -111 92 4 174 2 233 -7 145 -19 145 3 0 105 -191 134 -410
243 -630 316 -282 92 -491 112 -678 64z"/>
<path d="M6925 2956 c-220 -91 -493 -225 -600 -294 -115 -74 -266 -230 -434
-451 -104 -137 -98 -141 61 -45 61 37 230 125 377 197 146 71 298 150 336 174
116 74 225 190 330 350 35 52 42 70 34 85 -12 23 -9 23 -104 -16z"/>
<path d="M7569 2898 c-91 -64 -232 -203 -283 -281 -116 -176 -100 -337 45
-471 86 -80 112 -75 79 13 -11 28 -25 85 -31 125 -25 167 34 313 232 575 46
60 60 91 41 91 -5 0 -42 -23 -83 -52z"/>
<path d="M7229 2861 c-169 -54 -292 -181 -329 -339 -22 -96 13 -207 88 -274
52 -47 78 -43 65 11 -34 149 33 299 225 505 42 45 72 85 70 95 -4 23 -52 24
-119 2z"/>
<path d="M1865 2514 c-317 -47 -650 -190 -1010 -435 -125 -85 -173 -129 -141
-129 7 0 67 23 132 51 224 96 423 164 599 203 227 50 557 60 838 26 281 -34
395 -40 491 -30 109 13 196 34 256 63 38 19 45 26 45 52 0 26 -6 33 -45 51
-90 43 -341 95 -625 130 -126 15 -479 27 -540 18z"/>
<path d="M9045 2476 c-51 -17 -265 -124 -352 -177 -243 -149 -423 -366 -478
-580 -10 -35 -21 -122 -25 -194 -10 -147 -34 -275 -79 -416 -34 -106 -37 -129
-18 -129 33 0 234 389 352 680 109 267 154 346 273 472 69 73 220 206 330 290
84 65 83 81 -3 54z"/>
<path d="M3640 2449 c-360 -29 -690 -244 -802 -524 -30 -75 -32 -88 -33 -205
0 -147 16 -203 91 -313 81 -118 220 -207 404 -258 76 -21 105 -24 270 -23 158
0 197 3 265 22 109 30 250 101 339 171 109 87 257 265 241 290 -9 16 -17 14
-120 -29 -110 -48 -268 -86 -392 -95 -259 -20 -505 141 -520 339 -10 115 40
208 164 311 143 118 333 185 529 185 68 0 93 4 97 13 9 24 -7 36 -82 62 -144
50 -286 68 -451 54z"/>
<path d="M5895 2339 c-80 -55 -223 -126 -397 -198 -227 -94 -355 -176 -476
-306 -85 -90 -133 -162 -267 -395 -179 -313 -266 -429 -474 -640 -197 -197
-355 -321 -533 -419 -120 -66 -119 -84 0 -57 157 36 357 110 518 190 347 175
493 328 676 706 44 91 104 215 134 276 66 136 156 265 239 342 33 31 112 92
175 134 253 170 528 408 473 408 -5 0 -35 -18 -68 -41z"/>
<path d="M9175 2346 c-27 -12 -86 -50 -131 -84 -273 -206 -459 -549 -503 -929
-14 -119 -48 -217 -111 -319 -27 -46 -50 -87 -50 -93 0 -44 102 42 191 162
105 140 180 297 298 622 94 258 159 370 320 552 44 50 81 97 81 102 0 18 -42
12 -95 -13z"/>
<path d="M9337 2210 c-108 -68 -219 -200 -299 -355 -25 -50 -71 -162 -102
-250 -77 -219 -143 -389 -178 -459 -50 -100 -18 -115 69 -33 83 78 174 196
231 300 28 51 92 193 142 317 49 124 120 284 156 357 80 161 77 184 -19 123z"/>
<path d="M9613 2186 c-60 -54 -89 -106 -147 -265 -88 -238 -173 -382 -317
-538 -49 -52 -89 -99 -89 -104 0 -27 234 122 335 212 149 133 187 204 255 472
26 105 53 204 58 218 8 19 7 30 -1 38 -20 20 -44 12 -94 -33z"/>
<path d="M4046 2198 c-118 -16 -244 -98 -290 -189 -64 -129 -2 -276 143 -343
40 -18 64 -21 176 -20 114 0 139 4 204 27 132 47 232 133 247 213 22 116 -88
237 -261 289 -97 29 -142 34 -219 23z"/>
<path d="M6259 2156 c-27 -59 18 -139 100 -180 134 -68 296 -56 510 38 46 20
103 39 127 43 55 7 63 28 21 53 -72 45 -202 46 -442 6 -161 -27 -172 -28 -208
-13 -21 9 -45 30 -55 47 -21 36 -39 38 -53 6z"/>
<path d="M1880 2070 c-294 -34 -649 -178 -968 -392 -212 -142 -346 -248 -315
-248 7 0 78 32 160 71 284 135 525 220 722 254 149 25 363 35 788 35 226 0
418 3 427 6 30 11 17 43 -31 78 -61 45 -209 119 -291 146 -146 48 -339 68
-492 50z"/>
<path d="M7105 1995 c-142 -31 -274 -106 -376 -212 -143 -148 -188 -337 -124
-529 37 -112 85 -178 165 -226 292 -175 631 -94 824 195 30 45 69 113 85 151
52 116 42 124 -62 52 -87 -60 -147 -89 -239 -112 -215 -55 -428 77 -428 267 0
171 187 310 463 344 62 8 77 19 56 40 -44 42 -237 58 -364 30z"/>
<path d="M5893 1965 c-100 -27 -168 -74 -161 -112 3 -15 16 -19 83 -24 59 -4
121 -19 240 -59 136 -45 174 -54 254 -58 107 -5 181 8 256 45 56 28 115 80
115 101 0 15 -12 15 -127 -8 -86 -17 -154 -3 -302 60 -170 71 -250 84 -358 55z"/>
<path d="M5556 1878 c-56 -37 -193 -183 -276 -293 -33 -44 -86 -131 -117 -193
-56 -110 -58 -116 -57 -190 1 -93 29 -177 59 -177 17 0 21 12 32 95 27 202
134 411 336 653 48 58 87 110 87 116 0 22 -20 19 -64 -11z"/>
<path d="M7492 1859 c-145 -18 -282 -114 -311 -217 -20 -69 32 -158 107 -183
58 -19 188 -7 255 24 113 52 208 180 193 261 -18 93 -102 133 -244 115z"/>
<path d="M5824 1666 c-199 -46 -344 -203 -403 -438 -46 -181 -24 -228 52 -111
128 199 294 333 464 377 86 22 212 20 312 -5 107 -27 123 -16 61 41 -60 56
-126 96 -196 121 -76 26 -209 33 -290 15z"/>
<path d="M1847 1629 c-106 -10 -308 -51 -397 -79 -102 -33 -256 -114 -355
-186 -242 -177 -402 -264 -640 -348 -157 -56 -205 -76 -205 -87 0 -17 78 -21
206 -10 307 26 562 104 959 293 434 207 473 222 665 255 68 11 163 16 337 17
133 1 244 4 248 8 19 19 -135 75 -295 108 -176 36 -350 46 -523 29z"/>
<path d="M4457 1511 c-41 -32 -95 -86 -122 -120 -53 -67 -123 -127 -330 -282
-99 -73 -186 -151 -297 -265 -172 -175 -344 -323 -495 -424 -53 -36 -98 -71
-101 -78 -10 -30 153 -3 323 54 396 133 846 534 1042 929 78 157 98 212 83
230 -7 8 -16 15 -21 15 -4 0 -41 -27 -82 -59z"/>
<path d="M5948 1347 c-195 -68 -312 -161 -432 -341 -85 -128 -206 -250 -287
-292 -106 -53 -207 -40 -256 35 -61 90 -55 161 18 232 51 50 58 63 35 72 -49
19 -155 -43 -201 -118 -75 -122 -7 -306 144 -389 101 -54 215 -40 340 42 77
51 229 199 383 374 71 81 155 170 186 198 104 93 233 140 384 140 73 0 88 3
88 16 0 31 -87 58 -200 61 -98 4 -111 2 -202 -30z"/>
<path d="M7917 1373 c-3 -5 -13 -36 -21 -71 -76 -292 -226 -543 -458 -767
-112 -109 -180 -205 -222 -317 -27 -71 -44 -168 -30 -168 5 1 29 28 54 62 51
68 140 146 345 299 286 213 376 334 406 547 21 142 -14 412 -53 420 -9 2 -18
-1 -21 -5z"/>
<path d="M2300 1284 c-80 -16 -199 -55 -446 -148 -473 -177 -687 -234 -954
-254 -76 -6 -95 -10 -98 -23 -4 -19 56 -35 298 -77 136 -23 181 -26 375 -26
305 0 384 18 770 179 308 129 428 164 625 185 157 17 156 39 -5 90 -165 52
-269 71 -410 75 -71 2 -141 1 -155 -1z"/>
<path d="M6205 1179 c-27 -4 -77 -18 -110 -29 -123 -42 -179 -86 -435 -342
-211 -211 -255 -249 -315 -280 -103 -52 -154 -63 -280 -62 -83 1 -145 9 -255
33 -249 55 -367 41 -471 -56 -64 -60 -91 -124 -87 -211 2 -54 6 -67 21 -70 10
-2 20 4 23 15 57 166 156 253 290 253 86 0 126 -17 271 -116 142 -97 184 -117
272 -135 125 -24 265 31 428 169 51 42 210 198 355 346 273 280 348 342 463
385 29 11 76 23 104 27 61 8 83 27 50 44 -30 17 -164 39 -224 38 -27 0 -72 -4
-100 -9z"/>
<path d="M2810 1030 c-103 -22 -185 -52 -259 -95 -97 -57 -307 -138 -450 -175
-402 -102 -831 -99 -1301 10 -195 45 -268 57 -415 66 -171 10 -380 -26 -380
-66 0 -12 25 -14 135 -15 147 -1 144 -1 435 -87 396 -118 473 -139 588 -163
215 -43 360 -58 567 -58 380 -2 704 70 985 217 66 35 179 94 250 132 72 38
191 94 265 125 81 34 136 62 138 72 10 51 -373 77 -558 37z"/>
<path d="M7557 1010 c-26 -17 -116 -67 -200 -112 -84 -45 -163 -91 -175 -102
-13 -12 -42 -51 -63 -89 -44 -74 -102 -147 -213 -266 -41 -43 -86 -97 -100
-120 -26 -41 -45 -101 -32 -101 4 0 33 22 65 48 31 26 131 88 222 137 286 154
338 192 429 313 56 73 160 270 160 301 0 30 -35 27 -93 -9z"/>
<path d="M3485 949 c-319 -109 -470 -181 -683 -326 -279 -189 -573 -296 -912
-333 -58 -6 -116 -13 -130 -16 -24 -5 -24 -6 -5 -17 13 -7 111 -11 290 -10
466 0 717 43 957 164 90 45 215 129 313 209 119 98 396 361 392 374 -7 23 -46
15 -222 -45z"/>
<path d="M6530 954 c-32 -10 -90 -52 -195 -140 -183 -154 -265 -213 -370 -266
-86 -44 -100 -56 -84 -75 16 -19 113 -35 166 -28 186 26 339 126 504 331 54
67 103 125 109 129 21 13 9 36 -25 51 -41 17 -47 17 -105 -2z"/>
<path d="M6759 655 c-147 -143 -320 -247 -544 -327 -174 -62 -261 -80 -420
-83 -154 -3 -223 -20 -323 -77 -83 -47 -72 -57 103 -100 214 -52 358 -72 480
-64 345 20 556 177 743 552 105 210 96 231 -39 99z"/>
</g>
</svg>
